<mxfile host="app.diagrams.net" agent="Mozilla/5.0 (Macintosh; Intel Mac OS X 10_15_7) AppleWebKit/605.1.15 (KHTML, like Gecko) Version/18.3.1 Safari/605.1.15" version="26.2.5">
  <diagram name="Page-1" id="-RaP4enKgM7m-6t5dI8a">
    <mxGraphModel dx="970" dy="1368" grid="1" gridSize="10" guides="1" tooltips="1" connect="1" arrows="1" fold="1" page="1" pageScale="1" pageWidth="827" pageHeight="1169" math="0" shadow="0">
      <root>
        <mxCell id="0" />
        <mxCell id="1" parent="0" />
        <mxCell id="BiOf2po6AiUSbacjIIIV-1" value="BariStar" style="swimlane;fontStyle=1;align=center;verticalAlign=top;childLayout=stackLayout;horizontal=1;startSize=26;horizontalStack=0;resizeParent=1;resizeParentMax=0;resizeLast=0;collapsible=1;marginBottom=0;whiteSpace=wrap;html=1;" vertex="1" parent="1">
          <mxGeometry x="14" y="770" width="400" height="350" as="geometry" />
        </mxCell>
        <mxCell id="BiOf2po6AiUSbacjIIIV-2" value="- Etats: enum&lt;div&gt;- unite: Unite&lt;/div&gt;&lt;div&gt;- distanceAttaqueSapeurs: float&lt;/div&gt;&lt;div&gt;- rayonAttaqueSapeurs: float&lt;/div&gt;&lt;div&gt;&lt;div&gt;&lt;br&gt;&lt;div&gt;&lt;br&gt;&lt;/div&gt;&lt;/div&gt;&lt;/div&gt;" style="text;strokeColor=none;fillColor=none;align=left;verticalAlign=top;spacingLeft=4;spacingRight=4;overflow=hidden;rotatable=0;points=[[0,0.5],[1,0.5]];portConstraint=eastwest;whiteSpace=wrap;html=1;" vertex="1" parent="BiOf2po6AiUSbacjIIIV-1">
          <mxGeometry y="26" width="400" height="64" as="geometry" />
        </mxCell>
        <mxCell id="BiOf2po6AiUSbacjIIIV-3" value="" style="line;strokeWidth=1;fillColor=none;align=left;verticalAlign=middle;spacingTop=-1;spacingLeft=3;spacingRight=3;rotatable=0;labelPosition=right;points=[];portConstraint=eastwest;strokeColor=inherit;" vertex="1" parent="BiOf2po6AiUSbacjIIIV-1">
          <mxGeometry y="90" width="400" height="8" as="geometry" />
        </mxCell>
        <mxCell id="BiOf2po6AiUSbacjIIIV-4" value="- Start: void&lt;div&gt;- Update: void&lt;/div&gt;&lt;div&gt;- Update_EtatEloignement: void&lt;/div&gt;&lt;div&gt;- Update_EtatAttente: void&lt;/div&gt;&lt;div&gt;- Update_EtatMarche: void&lt;/div&gt;&lt;div&gt;- Update_EtatCombat: void&lt;/div&gt;&lt;div&gt;- SetEnnemi: void&lt;/div&gt;&lt;div&gt;- UniteEstSapeur(_unite: Unite): bool&lt;/div&gt;&lt;div&gt;- RecupererEnnemiPlusEntoure: Unite&lt;br&gt;&lt;/div&gt;&lt;div&gt;- RecupererEnnemiPlusProche: Unite&lt;/div&gt;&lt;div&gt;- RecupererEnnemis(position: Vector2, radius: float): Array&amp;lt;Unite&amp;gt;&lt;/div&gt;&lt;div&gt;- RecupererAlies(position: Vector2, radius: float): Array&amp;lt;Unite&amp;gt;&lt;/div&gt;&lt;div&gt;- RecupererToursEnnemies: Array&amp;lt;TourRavitaillement&amp;gt;&lt;/div&gt;&lt;div&gt;- RecupererTourEnnemiePlusProche: TourRavitaillement&lt;/div&gt;&lt;div&gt;- DynamitesProche: bool&lt;/div&gt;&lt;div&gt;- RecupererDynamitesProche: Array&amp;lt;Dynamite&amp;gt;&lt;/div&gt;" style="text;strokeColor=none;fillColor=none;align=left;verticalAlign=top;spacingLeft=4;spacingRight=4;overflow=hidden;rotatable=0;points=[[0,0.5],[1,0.5]];portConstraint=eastwest;whiteSpace=wrap;html=1;" vertex="1" parent="BiOf2po6AiUSbacjIIIV-1">
          <mxGeometry y="98" width="400" height="252" as="geometry" />
        </mxCell>
        <mxCell id="BiOf2po6AiUSbacjIIIV-5" value="AutomaticSorting" style="swimlane;fontStyle=1;align=center;verticalAlign=top;childLayout=stackLayout;horizontal=1;startSize=26;horizontalStack=0;resizeParent=1;resizeParentMax=0;resizeLast=0;collapsible=1;marginBottom=0;whiteSpace=wrap;html=1;" vertex="1" parent="1">
          <mxGeometry x="14" y="50" width="190" height="100" as="geometry" />
        </mxCell>
        <mxCell id="BiOf2po6AiUSbacjIIIV-6" value="- spriteRenderer: SpriteRenderer" style="text;strokeColor=none;fillColor=none;align=left;verticalAlign=top;spacingLeft=4;spacingRight=4;overflow=hidden;rotatable=0;points=[[0,0.5],[1,0.5]];portConstraint=eastwest;whiteSpace=wrap;html=1;" vertex="1" parent="BiOf2po6AiUSbacjIIIV-5">
          <mxGeometry y="26" width="190" height="26" as="geometry" />
        </mxCell>
        <mxCell id="BiOf2po6AiUSbacjIIIV-7" value="" style="line;strokeWidth=1;fillColor=none;align=left;verticalAlign=middle;spacingTop=-1;spacingLeft=3;spacingRight=3;rotatable=0;labelPosition=right;points=[];portConstraint=eastwest;strokeColor=inherit;" vertex="1" parent="BiOf2po6AiUSbacjIIIV-5">
          <mxGeometry y="52" width="190" height="8" as="geometry" />
        </mxCell>
        <mxCell id="BiOf2po6AiUSbacjIIIV-8" value="- Start: void&lt;div&gt;- Update: void&lt;/div&gt;" style="text;strokeColor=none;fillColor=none;align=left;verticalAlign=top;spacingLeft=4;spacingRight=4;overflow=hidden;rotatable=0;points=[[0,0.5],[1,0.5]];portConstraint=eastwest;whiteSpace=wrap;html=1;" vertex="1" parent="BiOf2po6AiUSbacjIIIV-5">
          <mxGeometry y="60" width="190" height="40" as="geometry" />
        </mxCell>
        <mxCell id="BiOf2po6AiUSbacjIIIV-9" value="CameraMouvement" style="swimlane;fontStyle=1;align=center;verticalAlign=top;childLayout=stackLayout;horizontal=1;startSize=26;horizontalStack=0;resizeParent=1;resizeParentMax=0;resizeLast=0;collapsible=1;marginBottom=0;whiteSpace=wrap;html=1;" vertex="1" parent="1">
          <mxGeometry x="220" y="50" width="200" height="100" as="geometry" />
        </mxCell>
        <mxCell id="BiOf2po6AiUSbacjIIIV-10" value="- vitesseCamera: float" style="text;strokeColor=none;fillColor=none;align=left;verticalAlign=top;spacingLeft=4;spacingRight=4;overflow=hidden;rotatable=0;points=[[0,0.5],[1,0.5]];portConstraint=eastwest;whiteSpace=wrap;html=1;" vertex="1" parent="BiOf2po6AiUSbacjIIIV-9">
          <mxGeometry y="26" width="200" height="26" as="geometry" />
        </mxCell>
        <mxCell id="BiOf2po6AiUSbacjIIIV-11" value="" style="line;strokeWidth=1;fillColor=none;align=left;verticalAlign=middle;spacingTop=-1;spacingLeft=3;spacingRight=3;rotatable=0;labelPosition=right;points=[];portConstraint=eastwest;strokeColor=inherit;" vertex="1" parent="BiOf2po6AiUSbacjIIIV-9">
          <mxGeometry y="52" width="200" height="8" as="geometry" />
        </mxCell>
        <mxCell id="BiOf2po6AiUSbacjIIIV-12" value="- Update: void&lt;div&gt;- UpdateMouvementCamera: void&lt;/div&gt;" style="text;strokeColor=none;fillColor=none;align=left;verticalAlign=top;spacingLeft=4;spacingRight=4;overflow=hidden;rotatable=0;points=[[0,0.5],[1,0.5]];portConstraint=eastwest;whiteSpace=wrap;html=1;" vertex="1" parent="BiOf2po6AiUSbacjIIIV-9">
          <mxGeometry y="60" width="200" height="40" as="geometry" />
        </mxCell>
        <mxCell id="BiOf2po6AiUSbacjIIIV-14" value="Dynamite" style="swimlane;fontStyle=1;align=center;verticalAlign=top;childLayout=stackLayout;horizontal=1;startSize=26;horizontalStack=0;resizeParent=1;resizeParentMax=0;resizeLast=0;collapsible=1;marginBottom=0;whiteSpace=wrap;html=1;" vertex="1" parent="1">
          <mxGeometry x="40" y="250" width="220" height="330" as="geometry" />
        </mxCell>
        <mxCell id="BiOf2po6AiUSbacjIIIV-15" value="- gravite: double&lt;div&gt;- creationTs: double&lt;/div&gt;&lt;div&gt;+ tempsFinal: double&lt;/div&gt;&lt;div&gt;- vitesseDeplacement: float&lt;/div&gt;&lt;div&gt;- deplacementUnitaire: Vector2&lt;/div&gt;&lt;div&gt;- k: double&lt;/div&gt;&lt;div&gt;- animator: Animator&lt;/div&gt;&lt;div&gt;- positionDepart: Vector2&lt;/div&gt;&lt;div&gt;+ degats: float&lt;/div&gt;&lt;div&gt;+ destination: Vector2&lt;/div&gt;&lt;div&gt;+ rayonAttaque: float&lt;/div&gt;&lt;div&gt;- audioSource: AudioSource&lt;/div&gt;&lt;div&gt;+ clipExplosion: AudioClip&lt;/div&gt;&lt;div&gt;- exploded: bool&lt;/div&gt;" style="text;strokeColor=none;fillColor=none;align=left;verticalAlign=top;spacingLeft=4;spacingRight=4;overflow=hidden;rotatable=0;points=[[0,0.5],[1,0.5]];portConstraint=eastwest;whiteSpace=wrap;html=1;" vertex="1" parent="BiOf2po6AiUSbacjIIIV-14">
          <mxGeometry y="26" width="220" height="214" as="geometry" />
        </mxCell>
        <mxCell id="BiOf2po6AiUSbacjIIIV-16" value="" style="line;strokeWidth=1;fillColor=none;align=left;verticalAlign=middle;spacingTop=-1;spacingLeft=3;spacingRight=3;rotatable=0;labelPosition=right;points=[];portConstraint=eastwest;strokeColor=inherit;" vertex="1" parent="BiOf2po6AiUSbacjIIIV-14">
          <mxGeometry y="240" width="220" height="8" as="geometry" />
        </mxCell>
        <mxCell id="BiOf2po6AiUSbacjIIIV-17" value="- Start: void&lt;div&gt;- Update: void&lt;/div&gt;&lt;div&gt;- CalculerEquationMouvement: void&lt;/div&gt;&lt;div&gt;- InfligerDegats: void&lt;/div&gt;&lt;div&gt;- Explosion: void&lt;/div&gt;" style="text;strokeColor=none;fillColor=none;align=left;verticalAlign=top;spacingLeft=4;spacingRight=4;overflow=hidden;rotatable=0;points=[[0,0.5],[1,0.5]];portConstraint=eastwest;whiteSpace=wrap;html=1;" vertex="1" parent="BiOf2po6AiUSbacjIIIV-14">
          <mxGeometry y="248" width="220" height="82" as="geometry" />
        </mxCell>
        <mxCell id="BiOf2po6AiUSbacjIIIV-18" value="Equipe" style="swimlane;fontStyle=1;align=center;verticalAlign=top;childLayout=stackLayout;horizontal=1;startSize=26;horizontalStack=0;resizeParent=1;resizeParentMax=0;resizeLast=0;collapsible=1;marginBottom=0;whiteSpace=wrap;html=1;" vertex="1" parent="1">
          <mxGeometry x="270" y="210" width="250" height="210" as="geometry" />
        </mxCell>
        <mxCell id="BiOf2po6AiUSbacjIIIV-19" value="+ prefabFantassin: GameObject&lt;div&gt;+ prefabSapeur: GameObject&lt;/div&gt;&lt;div&gt;+ unites: List&amp;lt;Unite&amp;gt;&lt;/div&gt;&lt;div&gt;+ tours: Array&amp;lt;TourRavitaillement&amp;gt;&lt;/div&gt;&lt;div&gt;- NB_UNITES_PAR_RAVITAILLEMENT: int&lt;/div&gt;&lt;div&gt;- NB_UNITES_MAX: int&lt;/div&gt;&lt;div&gt;+ nbViesRestantes: int&lt;/div&gt;&lt;div&gt;- animator: Animator&lt;/div&gt;" style="text;strokeColor=none;fillColor=none;align=left;verticalAlign=top;spacingLeft=4;spacingRight=4;overflow=hidden;rotatable=0;points=[[0,0.5],[1,0.5]];portConstraint=eastwest;whiteSpace=wrap;html=1;" vertex="1" parent="BiOf2po6AiUSbacjIIIV-18">
          <mxGeometry y="26" width="250" height="124" as="geometry" />
        </mxCell>
        <mxCell id="BiOf2po6AiUSbacjIIIV-20" value="" style="line;strokeWidth=1;fillColor=none;align=left;verticalAlign=middle;spacingTop=-1;spacingLeft=3;spacingRight=3;rotatable=0;labelPosition=right;points=[];portConstraint=eastwest;strokeColor=inherit;" vertex="1" parent="BiOf2po6AiUSbacjIIIV-18">
          <mxGeometry y="150" width="250" height="8" as="geometry" />
        </mxCell>
        <mxCell id="BiOf2po6AiUSbacjIIIV-21" value="- Start: void&lt;div&gt;- Ravitailler: void&lt;/div&gt;&lt;div&gt;+ UniteMorte(defunt: Unite): void&lt;/div&gt;" style="text;strokeColor=none;fillColor=none;align=left;verticalAlign=top;spacingLeft=4;spacingRight=4;overflow=hidden;rotatable=0;points=[[0,0.5],[1,0.5]];portConstraint=eastwest;whiteSpace=wrap;html=1;" vertex="1" parent="BiOf2po6AiUSbacjIIIV-18">
          <mxGeometry y="158" width="250" height="52" as="geometry" />
        </mxCell>
        <mxCell id="BiOf2po6AiUSbacjIIIV-22" value="JoueurDeMusique" style="swimlane;fontStyle=1;align=center;verticalAlign=top;childLayout=stackLayout;horizontal=1;startSize=26;horizontalStack=0;resizeParent=1;resizeParentMax=0;resizeLast=0;collapsible=1;marginBottom=0;whiteSpace=wrap;html=1;" vertex="1" parent="1">
          <mxGeometry x="290" y="440" width="210" height="170" as="geometry" />
        </mxCell>
        <mxCell id="BiOf2po6AiUSbacjIIIV-23" value="- audioSource: AudioSource&lt;div&gt;- audioClips: Array&amp;lt;AudioClip&amp;gt;&lt;/div&gt;&lt;div&gt;- audioClipActuel: AudioClip&lt;/div&gt;" style="text;strokeColor=none;fillColor=none;align=left;verticalAlign=top;spacingLeft=4;spacingRight=4;overflow=hidden;rotatable=0;points=[[0,0.5],[1,0.5]];portConstraint=eastwest;whiteSpace=wrap;html=1;" vertex="1" parent="BiOf2po6AiUSbacjIIIV-22">
          <mxGeometry y="26" width="210" height="64" as="geometry" />
        </mxCell>
        <mxCell id="BiOf2po6AiUSbacjIIIV-24" value="" style="line;strokeWidth=1;fillColor=none;align=left;verticalAlign=middle;spacingTop=-1;spacingLeft=3;spacingRight=3;rotatable=0;labelPosition=right;points=[];portConstraint=eastwest;strokeColor=inherit;" vertex="1" parent="BiOf2po6AiUSbacjIIIV-22">
          <mxGeometry y="90" width="210" height="8" as="geometry" />
        </mxCell>
        <mxCell id="BiOf2po6AiUSbacjIIIV-25" value="- Start: void&lt;div&gt;- Update: void&lt;/div&gt;&lt;div&gt;- Update_AudioClip: void&lt;/div&gt;&lt;div&gt;- AudioClipAleatoire: AudioClip&lt;/div&gt;" style="text;strokeColor=none;fillColor=none;align=left;verticalAlign=top;spacingLeft=4;spacingRight=4;overflow=hidden;rotatable=0;points=[[0,0.5],[1,0.5]];portConstraint=eastwest;whiteSpace=wrap;html=1;" vertex="1" parent="BiOf2po6AiUSbacjIIIV-22">
          <mxGeometry y="98" width="210" height="72" as="geometry" />
        </mxCell>
        <mxCell id="BiOf2po6AiUSbacjIIIV-26" value="Sapeur" style="swimlane;fontStyle=1;align=center;verticalAlign=top;childLayout=stackLayout;horizontal=1;startSize=26;horizontalStack=0;resizeParent=1;resizeParentMax=0;resizeLast=0;collapsible=1;marginBottom=0;whiteSpace=wrap;html=1;" vertex="1" parent="1">
          <mxGeometry x="40" y="620" width="300" height="120" as="geometry" />
        </mxCell>
        <mxCell id="BiOf2po6AiUSbacjIIIV-27" value="+ prefabDynamite: GameObject" style="text;strokeColor=none;fillColor=none;align=left;verticalAlign=top;spacingLeft=4;spacingRight=4;overflow=hidden;rotatable=0;points=[[0,0.5],[1,0.5]];portConstraint=eastwest;whiteSpace=wrap;html=1;" vertex="1" parent="BiOf2po6AiUSbacjIIIV-26">
          <mxGeometry y="26" width="300" height="34" as="geometry" />
        </mxCell>
        <mxCell id="BiOf2po6AiUSbacjIIIV-28" value="" style="line;strokeWidth=1;fillColor=none;align=left;verticalAlign=middle;spacingTop=-1;spacingLeft=3;spacingRight=3;rotatable=0;labelPosition=right;points=[];portConstraint=eastwest;strokeColor=inherit;" vertex="1" parent="BiOf2po6AiUSbacjIIIV-26">
          <mxGeometry y="60" width="300" height="8" as="geometry" />
        </mxCell>
        <mxCell id="BiOf2po6AiUSbacjIIIV-29" value="# AssignerAttributs: void&lt;div&gt;# InfligerDegats(position: Vector2, degats: float)&lt;/div&gt;" style="text;strokeColor=none;fillColor=none;align=left;verticalAlign=top;spacingLeft=4;spacingRight=4;overflow=hidden;rotatable=0;points=[[0,0.5],[1,0.5]];portConstraint=eastwest;whiteSpace=wrap;html=1;" vertex="1" parent="BiOf2po6AiUSbacjIIIV-26">
          <mxGeometry y="68" width="300" height="52" as="geometry" />
        </mxCell>
        <mxCell id="BiOf2po6AiUSbacjIIIV-30" value="TourRavitaillement" style="swimlane;fontStyle=1;align=center;verticalAlign=top;childLayout=stackLayout;horizontal=1;startSize=26;horizontalStack=0;resizeParent=1;resizeParentMax=0;resizeLast=0;collapsible=1;marginBottom=0;whiteSpace=wrap;html=1;" vertex="1" parent="1">
          <mxGeometry x="520" y="651" width="290" height="190" as="geometry" />
        </mxCell>
        <mxCell id="BiOf2po6AiUSbacjIIIV-31" value="+ propriétaire: Equipe&lt;div&gt;- anneau: GameObject&lt;/div&gt;&lt;div&gt;- anneauSpriteRenderer: SpriteRenderer&lt;/div&gt;&lt;div&gt;+ equipeHumains: Equipe&lt;/div&gt;&lt;div&gt;+ equipeGoblins: Equipe&lt;/div&gt;" style="text;strokeColor=none;fillColor=none;align=left;verticalAlign=top;spacingLeft=4;spacingRight=4;overflow=hidden;rotatable=0;points=[[0,0.5],[1,0.5]];portConstraint=eastwest;whiteSpace=wrap;html=1;" vertex="1" parent="BiOf2po6AiUSbacjIIIV-30">
          <mxGeometry y="26" width="290" height="84" as="geometry" />
        </mxCell>
        <mxCell id="BiOf2po6AiUSbacjIIIV-32" value="" style="line;strokeWidth=1;fillColor=none;align=left;verticalAlign=middle;spacingTop=-1;spacingLeft=3;spacingRight=3;rotatable=0;labelPosition=right;points=[];portConstraint=eastwest;strokeColor=inherit;" vertex="1" parent="BiOf2po6AiUSbacjIIIV-30">
          <mxGeometry y="110" width="290" height="8" as="geometry" />
        </mxCell>
        <mxCell id="BiOf2po6AiUSbacjIIIV-33" value="- Start: void&lt;div&gt;- Update: void&lt;/div&gt;&lt;div&gt;- ChangerCouleurAnneau: void&lt;/div&gt;&lt;div&gt;- VerifierPossession: void&lt;/div&gt;" style="text;strokeColor=none;fillColor=none;align=left;verticalAlign=top;spacingLeft=4;spacingRight=4;overflow=hidden;rotatable=0;points=[[0,0.5],[1,0.5]];portConstraint=eastwest;whiteSpace=wrap;html=1;" vertex="1" parent="BiOf2po6AiUSbacjIIIV-30">
          <mxGeometry y="118" width="290" height="72" as="geometry" />
        </mxCell>
        <mxCell id="BiOf2po6AiUSbacjIIIV-34" value="Unite" style="swimlane;fontStyle=1;align=center;verticalAlign=top;childLayout=stackLayout;horizontal=1;startSize=26;horizontalStack=0;resizeParent=1;resizeParentMax=0;resizeLast=0;collapsible=1;marginBottom=0;whiteSpace=wrap;html=1;" vertex="1" parent="1">
          <mxGeometry x="560" y="40" width="360" height="450" as="geometry" />
        </mxCell>
        <mxCell id="BiOf2po6AiUSbacjIIIV-35" value="+ pointsVie: float&lt;div&gt;+ pointsVieMax: float&lt;/div&gt;&lt;div&gt;+ vitesseDeplacement: float&lt;/div&gt;&lt;div&gt;+ force: Vector2&lt;/div&gt;&lt;div&gt;+ delaiAttaque: float&lt;/div&gt;&lt;div&gt;+ distanceAttaque: float&lt;/div&gt;&lt;div&gt;+ rayonAttaque: float&lt;/div&gt;&lt;div&gt;+ agent: NavMeshAgent&lt;/div&gt;&lt;div&gt;+ tsDerniereAttaque: float&lt;/div&gt;&lt;div&gt;+ tsCreation: float&lt;/div&gt;&lt;div&gt;- spriteRenderer: SpriteRenderer&lt;/div&gt;&lt;div&gt;+ equipe: Equipe&lt;/div&gt;&lt;div&gt;# animator: Animator&lt;/div&gt;&lt;div&gt;- audioSource: AudioSource&lt;/div&gt;&lt;div&gt;+ audioClipAttaque: AudioClip&lt;/div&gt;&lt;div&gt;+ audioClipDommage: AudioClip&lt;/div&gt;&lt;div&gt;+ audioClipMort: AudioClip&lt;/div&gt;" style="text;strokeColor=none;fillColor=none;align=left;verticalAlign=top;spacingLeft=4;spacingRight=4;overflow=hidden;rotatable=0;points=[[0,0.5],[1,0.5]];portConstraint=eastwest;whiteSpace=wrap;html=1;" vertex="1" parent="BiOf2po6AiUSbacjIIIV-34">
          <mxGeometry y="26" width="360" height="254" as="geometry" />
        </mxCell>
        <mxCell id="BiOf2po6AiUSbacjIIIV-36" value="" style="line;strokeWidth=1;fillColor=none;align=left;verticalAlign=middle;spacingTop=-1;spacingLeft=3;spacingRight=3;rotatable=0;labelPosition=right;points=[];portConstraint=eastwest;strokeColor=inherit;" vertex="1" parent="BiOf2po6AiUSbacjIIIV-34">
          <mxGeometry y="280" width="360" height="8" as="geometry" />
        </mxCell>
        <mxCell id="BiOf2po6AiUSbacjIIIV-37" value="- Start: void&lt;div&gt;- Update: void&lt;/div&gt;&lt;div&gt;# AssignerAttributs: void&lt;/div&gt;&lt;div&gt;+ SetEquipe(equipe: Equipe): void&lt;/div&gt;&lt;div&gt;+ SetDestination(destination: Vector2): void&lt;/div&gt;&lt;div&gt;+ AttaqueEstPret: bool&lt;/div&gt;&lt;div&gt;+ Attaquer(position: Vector2): void&lt;/div&gt;&lt;div&gt;# InfligerDegats(position: Vector2, degats: float): void&lt;/div&gt;&lt;div&gt;+ SubirDegats(degats: float): void&lt;/div&gt;&lt;div&gt;+ AtteintDestination: bool&lt;/div&gt;" style="text;strokeColor=none;fillColor=none;align=left;verticalAlign=top;spacingLeft=4;spacingRight=4;overflow=hidden;rotatable=0;points=[[0,0.5],[1,0.5]];portConstraint=eastwest;whiteSpace=wrap;html=1;" vertex="1" parent="BiOf2po6AiUSbacjIIIV-34">
          <mxGeometry y="288" width="360" height="162" as="geometry" />
        </mxCell>
        <mxCell id="BiOf2po6AiUSbacjIIIV-42" value="Utilities" style="swimlane;fontStyle=0;childLayout=stackLayout;horizontal=1;startSize=26;fillColor=none;horizontalStack=0;resizeParent=1;resizeParentMax=0;resizeLast=0;collapsible=1;marginBottom=0;whiteSpace=wrap;html=1;" vertex="1" parent="1">
          <mxGeometry x="440" y="930" width="580" height="78" as="geometry" />
        </mxCell>
        <mxCell id="BiOf2po6AiUSbacjIIIV-43" value="+ getPositionSurDroite(a: Vector2, b: Vector2, distanceA: float, distanceFixe: bool): Vector2" style="text;strokeColor=none;fillColor=none;align=left;verticalAlign=top;spacingLeft=4;spacingRight=4;overflow=hidden;rotatable=0;points=[[0,0.5],[1,0.5]];portConstraint=eastwest;whiteSpace=wrap;html=1;" vertex="1" parent="BiOf2po6AiUSbacjIIIV-42">
          <mxGeometry y="26" width="580" height="26" as="geometry" />
        </mxCell>
        <mxCell id="BiOf2po6AiUSbacjIIIV-45" value="+ rotationVersCible(objetA: Transform, objetB: Transform, inverse: bool): void" style="text;strokeColor=none;fillColor=none;align=left;verticalAlign=top;spacingLeft=4;spacingRight=4;overflow=hidden;rotatable=0;points=[[0,0.5],[1,0.5]];portConstraint=eastwest;whiteSpace=wrap;html=1;" vertex="1" parent="BiOf2po6AiUSbacjIIIV-42">
          <mxGeometry y="52" width="580" height="26" as="geometry" />
        </mxCell>
      </root>
    </mxGraphModel>
  </diagram>
</mxfile>
